<svg width="116" height="80" viewBox="0 0 116 80" fill="none" xmlns="http://www.w3.org/2000/svg">
<path d="M78.6116 34.5662C78.6116 35.2761 78.3227 35.9569 77.8084 36.4588C77.2942 36.9608 76.5966 37.2428 75.8693 37.2428H39.3058C38.5785 37.2428 37.881 36.9608 37.3667 36.4588C36.8525 35.9569 36.5635 35.2761 36.5635 34.5662C36.5635 33.8563 36.8525 33.1755 37.3667 32.6736C37.881 32.1716 38.5785 31.8896 39.3058 31.8896H75.8693C76.5966 31.8896 77.2942 32.1716 77.8084 32.6736C78.3227 33.1755 78.6116 33.8563 78.6116 34.5662ZM75.8693 46.1647H39.3058C38.5785 46.1647 37.881 46.4467 37.3667 46.9487C36.8525 47.4506 36.5635 48.1314 36.5635 48.8413C36.5635 49.5512 36.8525 50.232 37.3667 50.7339C37.881 51.2359 38.5785 51.5179 39.3058 51.5179H75.8693C76.5966 51.5179 77.2942 51.2359 77.8084 50.7339C78.3227 50.232 78.6116 49.5512 78.6116 48.8413C78.6116 48.1314 78.3227 47.4506 77.8084 46.9487C77.2942 46.4467 76.5966 46.1647 75.8693 46.1647ZM115.175 30.9974V41.7038C115.171 45.2519 113.725 48.6536 111.155 51.1625C108.584 53.6714 105.099 55.0827 101.464 55.0867H98.4839C95.6393 61.5462 89.8892 67.2187 81.4453 71.797C71.9493 76.9459 61.7773 79.2763 58.8856 79.8678C58.0294 80.0441 57.1449 80.0441 56.2887 79.8678C53.3979 79.2763 43.2259 76.9459 33.7299 71.797C25.286 67.2187 19.5359 61.5457 16.6913 55.0867H13.7113C10.0761 55.0827 6.59098 53.6714 4.0205 51.1625C1.45002 48.6536 0.00411291 45.2519 0 41.7038V30.9974C0.00411291 27.4493 1.45002 24.0476 4.0205 21.5387C6.59098 19.0298 10.0761 17.6185 13.7113 17.6145H14.8471C15.1132 16.6439 15.6147 15.7499 16.3091 15.0082C17.0035 14.2664 17.8706 13.6985 18.8371 13.3525L55.4006 0.375538C56.8135 -0.125179 58.3617 -0.125179 59.7745 0.375538L96.3381 13.3525C97.3046 13.6985 98.1716 14.2664 98.866 15.0082C99.5605 15.7499 100.062 16.6439 100.328 17.6145H101.464C105.099 17.6185 108.584 19.0298 111.155 21.5387C113.725 24.0476 115.171 27.4493 115.175 30.9974ZM15.0358 49.7335C14.7627 48.2615 14.6253 46.7685 14.6254 45.2725V22.9677H13.7113C11.5302 22.97 9.43908 23.8168 7.89678 25.3221C6.35448 26.8275 5.48695 28.8685 5.48453 30.9974V41.7038C5.48695 43.8327 6.35448 45.8737 7.89678 47.379C9.43908 48.8844 11.5302 49.7311 13.7113 49.7335H15.0358ZM95.0652 45.2725V19.2222C95.0648 19.0392 95.0069 18.8607 94.8994 18.7107C94.7919 18.5608 94.6398 18.4466 94.4637 18.3836L57.9002 5.40617C57.6982 5.33463 57.4769 5.33463 57.275 5.40617L20.7114 18.3831C20.5353 18.4462 20.3832 18.5604 20.2756 18.7105C20.1681 18.8605 20.1103 19.0391 20.1099 19.2222V45.2725C20.1099 66.3876 53.5962 73.8473 57.4139 74.6284C57.5281 74.6524 57.6462 74.6524 57.7603 74.6284C61.5789 73.8473 95.0652 66.3876 95.0652 45.2725ZM109.691 30.9974C109.688 28.8685 108.821 26.8275 107.278 25.3221C105.736 23.8168 103.645 22.97 101.464 22.9677H100.55V45.2725C100.55 46.7685 100.412 48.2615 100.139 49.7335H101.464C103.645 49.7311 105.736 48.8844 107.278 47.379C108.821 45.8737 109.688 43.8327 109.691 41.7038V30.9974Z" fill="#17335E"/>
</svg>
