<svg width="94" height="100" viewBox="0 0 94 100" fill="none" xmlns="http://www.w3.org/2000/svg">
<path d="M92.7236 47.7825L48.7794 0.908704C48.2305 0.326685 47.488 0 46.714 0C45.9401 0 45.1975 0.326685 44.6486 0.908704L0.704446 47.7825C0.224498 48.3803 -0.0262944 49.1493 0.00218485 49.9357C0.0306641 50.7222 0.336318 51.4683 0.858066 52.0248C1.37981 52.5813 2.07923 52.9074 2.81654 52.9377C3.55385 52.9681 4.27476 52.7006 4.8352 52.1887L46.6994 7.53354L88.5635 52.2199C89.124 52.7318 89.8449 52.9994 90.5822 52.969C91.3195 52.9386 92.0189 52.6126 92.5407 52.056C93.0624 51.4995 93.3681 50.7535 93.3966 49.967C93.425 49.1805 93.1742 48.4116 92.6943 47.8138L92.7236 47.7825Z" fill="#17335E"/>
<path d="M75.9945 93.7502H61.3464V62.501H32.0503V93.7502H17.4022V50.0013L11.543 56.2512V93.7502C11.543 95.4078 12.1603 96.9974 13.2591 98.1695C14.3579 99.3416 15.8482 100 17.4022 100H37.9095V68.7508H55.4872V100H75.9945C77.5484 100 79.0387 99.3416 80.1376 98.1695C81.2364 96.9974 81.8537 95.4078 81.8537 93.7502V55.5012L75.9945 49.2513V93.7502Z" fill="#17335E"/>
</svg>
